<svg width="46" height="46" viewBox="0 0 46 46" fill="none" xmlns="http://www.w3.org/2000/svg">
<path d="M23.0004 7.66699C14.5457 7.66699 7.66699 14.5457 7.66699 23.0004C7.66699 31.455 14.5457 38.3337 23.0004 38.3337C31.455 38.3337 38.3337 31.455 38.3337 23.0004C38.3337 14.5457 31.455 7.66699 23.0004 7.66699ZM30.8449 13.3945C31.0171 13.2027 31.2604 13.0894 31.5187 13.0792C31.7414 13.0539 32.0279 13.1625 32.215 13.3403C34.2028 15.2223 35.5542 17.6182 36.1194 20.2686C36.2093 20.6915 36.0052 21.1221 35.6215 21.3205C34.6837 21.8053 33.5701 22.0401 32.5032 22.0401C31.1125 22.0401 29.7948 21.6414 29.0311 20.8777C27.4065 19.254 28.084 16.4568 30.8449 13.3945ZM15.1559 32.7559C14.9837 32.9477 14.7404 33.0619 14.4821 33.0722C14.4709 33.0731 14.4577 33.0731 14.4446 33.0731C14.1994 33.0731 13.9636 32.9795 13.7858 32.811C11.798 30.929 10.4466 28.5331 9.88137 25.8818C9.79153 25.4588 9.99556 25.0283 10.3793 24.8299C12.5393 23.7153 15.6201 23.923 16.9697 25.2726C18.5924 26.8964 17.9148 29.6937 15.1559 32.7559ZM16.9696 20.8778C16.2059 21.6415 14.8882 22.0402 13.4975 22.0402C12.4306 22.0402 11.3188 21.8053 10.3792 21.3205C9.99547 21.1222 9.79144 20.6916 9.88128 20.2687C10.4466 17.6183 11.7979 15.2224 13.7857 13.3404C13.9729 13.1626 14.248 13.0521 14.482 13.0793C14.7403 13.0896 14.9836 13.2028 15.1558 13.3946C17.9167 16.4568 18.5942 19.2541 16.9696 20.8778ZM27.0845 35.7797C25.7574 36.2027 24.3835 36.4171 23.0004 36.4171C21.6172 36.4171 20.2432 36.2028 18.9162 35.7797C18.4951 35.645 18.2199 35.2407 18.2499 34.7999C18.4895 31.3512 20.5315 28.7504 23.0004 28.7504C25.4692 28.7504 27.5112 31.3512 27.7508 34.7998C27.7808 35.2407 27.5057 35.645 27.0845 35.7797ZM19.167 23.0004C19.167 20.8862 20.8871 19.167 23.0004 19.167C25.1136 19.167 26.8337 20.8862 26.8337 23.0004C26.8337 25.1146 25.1136 26.8337 23.0004 26.8337C20.8871 26.8337 19.167 25.1145 19.167 23.0004ZM27.7508 11.2766C27.5112 14.7244 25.4692 17.3252 23.0004 17.3252C20.5315 17.3252 18.4895 14.7244 18.2499 11.2766C18.2199 10.8359 18.4932 10.4316 18.9144 10.2977C21.5685 9.44976 24.4323 9.44976 27.0864 10.2977C27.5075 10.4316 27.7808 10.8359 27.7508 11.2766ZM36.1194 25.7294C35.5541 28.3806 34.2028 30.7765 32.215 32.6586C32.0372 32.827 31.8014 32.9206 31.5562 32.9206C31.5431 32.9206 31.5299 32.9206 31.5187 32.9197C31.2604 32.9094 31.0171 32.7962 30.8449 32.6044C28.0841 29.5422 27.4065 26.744 29.0311 25.1202C30.3807 23.7698 33.4597 23.5648 35.6215 24.6776C36.0052 24.8758 36.2093 25.3064 36.1194 25.7294Z" fill="#1E1B1B"/>
<path d="M23 0C10.317 0 0 10.318 0 23C0 35.682 10.317 46 23 46C35.683 46 46 35.682 46 23C46 10.318 35.683 0 23 0ZM23 40.25C13.4878 40.25 5.75 32.5113 5.75 23C5.75 13.4887 13.4878 5.75 23 5.75C32.5122 5.75 40.25 13.4887 40.25 23C40.25 32.5113 32.5122 40.25 23 40.25Z" fill="#1E1B1B"/>
</svg>
