<svg width="17" height="17" viewBox="0 0 17 17" fill="none" xmlns="http://www.w3.org/2000/svg">
<g clip-path="url(#clip0_1_219)">
<path d="M8.98744 3.93437C10.5534 2.52837 12.9734 2.57504 14.4821 4.08637C15.9901 5.59837 16.0421 8.00637 14.6394 9.57704L8.9861 15.2384L3.3341 9.57704C1.93144 8.00637 1.9841 5.59437 3.49144 4.08637C5.00144 2.57704 7.41677 2.52637 8.98744 3.93437ZM13.5381 5.02837C12.5381 4.02704 10.9248 3.98637 9.8781 4.92637L8.9881 5.72504L8.09744 4.92704C7.04744 3.98571 5.43744 4.02704 4.43477 5.02971C3.44144 6.02304 3.39144 7.61304 4.30677 8.66371L8.98677 13.351L13.6668 8.66437C14.5828 7.61304 14.5328 6.02504 13.5381 5.02837Z" fill="#5A5D79"/>
</g>
<defs>
<clipPath id="clip0_1_219">
<rect width="16" height="16" fill="white" transform="translate(0.986755 0.915039)"/>
</clipPath>
</defs>
</svg>
