<svg width="48" height="48" viewBox="0 0 48 48" fill="none" xmlns="http://www.w3.org/2000/svg">
<path fill-rule="evenodd" clip-rule="evenodd" d="M10.5 0C11.3284 0 12 0.671573 12 1.5V3H36V1.5C36 0.671573 36.6716 0 37.5 0C38.3284 0 39 0.671573 39 1.5V3H42C45.3137 3 48 5.68629 48 9V42C48 45.3137 45.3137 48 42 48H6C2.68629 48 0 45.3137 0 42V9C0 5.68629 2.68629 3 6 3H9V1.5C9 0.671573 9.67157 0 10.5 0ZM40.362 9H7.635C6.735 9 6 9.672 6 10.5V13.5C6 14.328 6.732 15 7.635 15H40.365C41.265 15 42 14.328 42 13.5V10.5C42 9.672 41.268 9 40.362 9ZM32.562 24.438C33.1485 25.0245 33.1485 25.9755 32.562 26.562L23.562 35.562C23.2806 35.8441 22.8985 36.0027 22.5 36.0027C22.1015 36.0027 21.7194 35.8441 21.438 35.562L16.938 31.062C16.5586 30.6826 16.4104 30.1296 16.5493 29.6113C16.6882 29.093 17.093 28.6882 17.6113 28.5493C18.1296 28.4104 18.6826 28.5586 19.062 28.938L22.5 32.379L30.438 24.438C31.0245 23.8515 31.9755 23.8515 32.562 24.438Z" fill="white"/>
</svg>
