<svg width="48" height="39" viewBox="0 0 48 39" fill="none" xmlns="http://www.w3.org/2000/svg">
<path fill-rule="evenodd" clip-rule="evenodd" d="M19.5 0C17.0147 0 15 2.01472 15 4.5V6H4.5C2.01472 6 0 8.01472 0 10.5V14.652L22.842 20.742C23.6008 20.9441 24.3992 20.9441 25.158 20.742L48 14.652V10.5C48 8.01472 45.9853 6 43.5 6H33V4.5C33 2.01472 30.9853 0 28.5 0H19.5ZM19.5 3H28.5C29.3284 3 30 3.67157 30 4.5V6H18V4.5C18 3.67157 18.6716 3 19.5 3ZM4.5 39C2.01472 39 0 36.9853 0 34.5V17.55L23.613 23.841C23.8666 23.9087 24.1334 23.9087 24.387 23.841L48 17.55V34.5C48 36.9853 45.9853 39 43.5 39H4.5Z" fill="white"/>
</svg>
