<svg width="58" height="57" viewBox="0 0 58 57" fill="none" xmlns="http://www.w3.org/2000/svg">
<path d="M51.9306 5.36692L48.0858 13.8522C47.9095 14.2412 47.8184 14.6633 47.8184 15.0904V52.9391C47.8184 54.0437 48.7138 54.9391 49.8184 54.9391H54.9537C56.0583 54.9391 56.9537 54.0437 56.9537 52.9391V15.0904C56.9537 14.6633 56.8625 14.2412 56.6863 13.8522L52.8415 5.36692C52.6641 4.9754 52.108 4.9754 51.9306 5.36692Z" stroke="#D1B06B" stroke-width="2"/>
<path d="M47.8184 15.0903H52.957H56.9537" stroke="#D1B06B" stroke-width="2"/>
<rect x="6.83398" y="25.144" width="28.0038" height="2.33365" rx="1.16683" fill="#D1B06B"/>
<rect x="8.16797" y="8.97559" width="10.1678" height="7.83413" rx="1.5" stroke="#D1B06B" stroke-width="2"/>
<rect x="6.83398" y="36.8125" width="28.0038" height="2.33365" rx="1.16683" fill="#D1B06B"/>
<rect x="6.83398" y="42.6465" width="17.5024" height="2.33365" rx="1.16683" fill="#D1B06B"/>
<rect x="6.83398" y="30.9785" width="28.0038" height="2.33365" rx="1.16683" fill="#D1B06B"/>
<path d="M47.8184 49.8306H56.9537" stroke="#D1B06B" stroke-width="2"/>
<path d="M1 8.80762V48.1925C1 52.0585 4.13401 55.1925 8 55.1925H34.2603C38.1263 55.1925 41.2603 52.0585 41.2603 48.1925V16.5358C41.2603 14.5484 40.4154 12.6546 38.9365 11.3269L30.3278 3.59866C29.0432 2.44548 27.3778 1.80762 25.6516 1.80762H8C4.13401 1.80762 1 4.94162 1 8.80762Z" stroke="#D1B06B" stroke-width="2"/>
<path d="M25.9805 2.0249V11.6966C25.9805 13.9058 27.7713 15.6966 29.9805 15.6966H40.2898" stroke="#D1B06B" stroke-width="2" stroke-linecap="round"/>
</svg>
