<svg width="22" height="18" viewBox="0 0 22 18" fill="none" xmlns="http://www.w3.org/2000/svg">
<path d="M21.1236 2.59893C20.3369 2.94078 19.5045 3.16599 18.6527 3.26745C19.5478 2.74329 20.221 1.91056 20.546 0.925445C19.6997 1.42032 18.7753 1.76755 17.8125 1.95226C17.407 1.52735 16.9194 1.18932 16.3793 0.958716C15.8391 0.728116 15.2577 0.609762 14.6704 0.610847C12.2926 0.610847 10.3683 2.50717 10.3683 4.84481C10.3666 5.16997 10.4039 5.49416 10.4793 5.81046C8.77418 5.73052 7.10455 5.29556 5.5772 4.53339C4.04985 3.77122 2.69841 2.69863 1.60934 1.38423C1.22727 2.02834 1.02521 2.76324 1.02427 3.51214C1.02427 4.98027 1.79023 6.27798 2.94682 7.03826C2.26158 7.022 1.59037 6.84063 0.990193 6.50956V6.562C0.990193 8.61562 2.4758 10.3241 4.44203 10.7129C4.07229 10.8115 3.69127 10.8615 3.30861 10.8615C3.03708 10.862 2.76617 10.8356 2.49983 10.7829C3.04644 12.4651 4.63735 13.6885 6.52188 13.7235C4.99056 14.9036 3.11051 15.5415 1.1772 15.5368C0.834038 15.5363 0.49119 15.5158 0.150391 15.4756C2.11714 16.7315 4.40334 17.3958 6.73685 17.3894C14.6612 17.3894 18.9905 10.9358 18.9905 5.33856C18.9905 5.15504 18.9856 4.97153 18.9769 4.79238C19.8172 4.19467 20.5441 3.45189 21.1236 2.59893Z" fill="white"/>
</svg>
