<svg width="21" height="20" viewBox="0 0 21 20" fill="none" xmlns="http://www.w3.org/2000/svg">
<path d="M10.0681 0.0571289C4.57613 0.0571289 0.123047 4.50823 0.123047 9.99777C0.123047 14.0672 2.5738 17.5642 6.07677 19.1041C6.05013 18.4118 6.07233 17.5775 6.24992 16.8231C6.44083 16.0154 7.52858 11.4045 7.52858 11.4045C7.52858 11.4045 7.20891 10.7699 7.20891 9.83357C7.20891 8.36022 8.06135 7.25965 9.12689 7.25965C10.0326 7.25965 10.4677 7.93863 10.4677 8.75075C10.4677 9.66049 9.88609 11.0185 9.58863 12.2788C9.34 13.335 10.117 14.1915 11.1603 14.1915C13.0428 14.1915 14.3125 11.7729 14.3125 8.90607C14.3125 6.72712 12.843 5.09845 10.1747 5.09845C7.16008 5.09845 5.27761 7.34841 5.27761 9.8602C5.27761 10.7256 5.53512 11.338 5.9347 11.8084C6.11673 12.0258 6.14337 12.1146 6.07677 12.3631C6.02794 12.5451 5.92138 12.9844 5.87254 13.1619C5.80595 13.4149 5.60172 13.5036 5.37529 13.4104C3.98564 12.8424 3.33744 11.3247 3.33744 9.61168C3.33744 6.78925 5.72159 3.40322 10.4455 3.40322C14.2415 3.40322 16.7411 6.15021 16.7411 9.0969C16.7411 12.9977 14.57 15.9089 11.3734 15.9089C10.299 15.9089 9.29116 15.3275 8.94486 14.6708C8.94486 14.6708 8.36769 16.9607 8.24338 17.4044C8.03471 18.1722 7.62181 18.9355 7.24443 19.5346C8.15986 19.8045 9.10925 19.942 10.0637 19.9428C15.5557 19.9428 20.0088 15.4917 20.0088 10.0022C20.0088 4.51267 15.5601 0.0571289 10.0681 0.0571289Z" fill="white"/>
</svg>
