<svg width="20" height="20" viewBox="0 0 20 20" fill="none" xmlns="http://www.w3.org/2000/svg">
<path d="M13.8655 2.14589C14.9461 2.149 15.9816 2.56377 16.7458 3.29962C17.5099 4.03547 17.9407 5.03261 17.9439 6.07325V13.9271C17.9407 14.9678 17.5099 15.9649 16.7458 16.7008C15.9816 17.4366 14.9461 17.8514 13.8655 17.8545H5.70952C4.62885 17.8514 3.59336 17.4366 2.82921 16.7008C2.06506 15.9649 1.63433 14.9678 1.6311 13.9271V6.07325C1.63433 5.03261 2.06506 4.03547 2.82921 3.29962C3.59336 2.56377 4.62885 2.149 5.70952 2.14589H13.8655ZM13.8655 0.575195H5.70952C2.56922 0.575195 0 3.04926 0 6.07325V13.9271C0 16.9511 2.56922 19.4252 5.70952 19.4252H13.8655C17.0058 19.4252 19.575 16.9511 19.575 13.9271V6.07325C19.575 3.04926 17.0058 0.575195 13.8655 0.575195Z" fill="white"/>
<path d="M15.0887 6.07207C14.8467 6.07207 14.6102 6.00298 14.409 5.87352C14.2078 5.74407 14.051 5.56007 13.9584 5.34479C13.8658 5.12952 13.8416 4.89264 13.8888 4.66411C13.936 4.43557 14.0525 4.22565 14.2236 4.06089C14.3947 3.89612 14.6127 3.78392 14.85 3.73846C15.0874 3.693 15.3334 3.71633 15.5569 3.8055C15.7805 3.89467 15.9715 4.04567 16.106 4.23941C16.2404 4.43316 16.3122 4.66093 16.3122 4.89395C16.3125 5.04875 16.2811 5.2021 16.2197 5.34519C16.1584 5.48828 16.0683 5.61828 15.9546 5.72775C15.8409 5.83721 15.7059 5.92398 15.5573 5.98307C15.4087 6.04216 15.2495 6.0724 15.0887 6.07207ZM9.78731 6.85721C10.4326 6.85721 11.0634 7.04147 11.5999 7.3867C12.1365 7.73192 12.5547 8.22261 12.8016 8.7967C13.0485 9.37079 13.1131 10.0025 12.9873 10.6119C12.8614 11.2214 12.5506 11.7812 12.0943 12.2206C11.6381 12.66 11.0567 12.9592 10.4238 13.0805C9.79092 13.2017 9.13492 13.1395 8.53875 12.9017C7.94257 12.6639 7.43302 12.2612 7.07452 11.7445C6.71601 11.2278 6.52466 10.6204 6.52466 9.99901C6.52559 9.16603 6.86962 8.36741 7.48129 7.77841C8.09295 7.18939 8.92228 6.8581 9.78731 6.85721ZM9.78731 5.28651C8.81941 5.28651 7.87326 5.5629 7.06848 6.08071C6.26371 6.59853 5.63647 7.33452 5.26607 8.19562C4.89568 9.05672 4.79876 10.0042 4.98759 10.9184C5.17642 11.8325 5.6425 12.6722 6.3269 13.3313C7.01131 13.9903 7.88329 14.4391 8.83258 14.621C9.78188 14.8028 10.7658 14.7095 11.6601 14.3528C12.5543 13.9961 13.3186 13.3921 13.8563 12.6171C14.394 11.8422 14.6811 10.9311 14.6811 9.99901C14.6811 8.74918 14.1655 7.55054 13.2477 6.66677C12.33 5.78301 11.0852 5.28651 9.78731 5.28651Z" fill="white"/>
</svg>
