<svg width="22" height="20" viewBox="0 0 22 20" fill="none" xmlns="http://www.w3.org/2000/svg">
<path d="M11 20C11.3397 19.9996 11.6713 19.8985 11.9519 19.7099C16.1079 16.9312 17.9074 15.026 18.9 13.8349C21.0153 11.2958 22.028 8.68906 21.9994 5.86615C21.9661 2.63125 19.331 0 16.1253 0C13.7943 0 12.1798 1.29323 11.2396 2.37031C11.2098 2.40409 11.173 2.43117 11.1316 2.44973C11.0903 2.46829 11.0454 2.4779 11 2.4779C10.9546 2.4779 10.9097 2.46829 10.8684 2.44973C10.827 2.43117 10.7902 2.40409 10.7604 2.37031C9.82021 1.29219 8.20572 0 5.87469 0C2.669 0 0.0339012 2.63125 0.000585556 5.86667C-0.0279713 8.6901 0.985773 11.2969 3.09999 13.8354C4.09258 15.0266 5.89215 16.9318 10.0481 19.7104C10.3287 19.8988 10.6604 19.9997 11 20Z" fill="#D1B06B"/>
</svg>
