<svg width="30" height="28" viewBox="0 0 30 28" fill="none" xmlns="http://www.w3.org/2000/svg">
<path d="M15 28C15.4632 27.9994 15.9155 27.8579 16.298 27.5939C21.9653 23.7037 24.4192 21.0365 25.7727 19.3689C28.6572 15.8142 30.0381 12.1647 29.9992 8.2126C29.9538 3.68375 26.3605 0 21.989 0C18.8104 0 16.6088 1.81052 15.3267 3.31844C15.286 3.36572 15.2359 3.40364 15.1795 3.42963C15.1232 3.45561 15.0619 3.46906 15 3.46906C14.9381 3.46906 14.8768 3.45561 14.8205 3.42963C14.7641 3.40364 14.7139 3.36572 14.6733 3.31844C13.3912 1.80906 11.1896 0 8.01095 0C3.63955 0 0.0462284 3.68375 0.000799179 8.21333C-0.0381413 12.1661 1.34424 15.8156 4.22725 19.3696C5.58079 21.0372 8.03475 23.7045 13.702 27.5946C14.0846 27.8584 14.5369 27.9996 15 28Z" fill="#D1B06B"/>
</svg>
