<svg width="27" height="27" viewBox="0 0 27 27" fill="none" xmlns="http://www.w3.org/2000/svg">
<path d="M26.9368 20.379C26.6222 20.0439 25.5114 19.0531 23.4695 17.7422C21.4125 16.4199 19.8955 15.5954 19.4604 15.4032C19.422 15.3862 19.3798 15.3799 19.3381 15.3851C19.2965 15.3903 19.2571 15.4068 19.2241 15.4327C18.5232 15.9793 17.3431 16.9834 17.2798 17.0377C16.8712 17.3878 16.8712 17.3878 16.5367 17.2787C15.9485 17.0859 14.1211 16.1155 12.5288 14.5196C10.9365 12.9237 9.91609 11.0511 9.72323 10.4635C9.61293 10.1284 9.61293 10.1284 9.9643 9.7198C10.0185 9.65651 11.0232 8.47645 11.5699 7.77612C11.5958 7.74314 11.6123 7.70372 11.6175 7.66209C11.6227 7.62047 11.6164 7.57821 11.5994 7.53987C11.4072 7.10412 10.5827 5.58775 9.26036 3.53077C7.94769 1.48946 6.95806 0.378703 6.62296 0.0640988C6.59221 0.0350811 6.55421 0.0148947 6.51295 0.00566677C6.47168 -0.00356118 6.4287 -0.00148897 6.38852 0.0116648C5.21716 0.414193 4.08699 0.927812 3.01343 1.54551C1.97705 2.14797 0.99587 2.84074 0.0813184 3.61575C0.0493935 3.64289 0.0254587 3.67821 0.0120806 3.71792C-0.00129751 3.75763 -0.00361416 3.80023 0.00537896 3.84116C0.131342 4.42818 0.733434 6.87872 2.60179 10.2731C4.50811 13.7373 5.82922 15.5122 8.62873 18.3021C11.4282 21.092 13.2592 22.4926 16.7271 24.3989C20.1215 26.2673 22.5733 26.8699 23.1591 26.9947C23.2001 27.0036 23.2428 27.0013 23.2826 26.9879C23.3224 26.9745 23.3578 26.9506 23.3851 26.9188C24.16 26.0042 24.8526 25.0231 25.4548 23.9867C26.0723 22.9131 26.586 21.7829 26.9886 20.6116C27.0015 20.5717 27.0035 20.5291 26.9944 20.4882C26.9853 20.4473 26.9654 20.4096 26.9368 20.379Z" fill="white"/>
</svg>
