<svg width="36" height="34" viewBox="0 0 36 34" fill="none" xmlns="http://www.w3.org/2000/svg">
<path fill-rule="evenodd" clip-rule="evenodd" d="M30.7776 3.43578L23.606 4.64131L9.76321 20.3284L8.38832 18.9535L6.3464 20.9954L7.84882 22.4978L3.92219 26.9476L7.26579 30.2912L11.7155 26.3645L13.0266 27.6756L15.0686 25.6337L13.885 24.4501L29.572 10.6073L30.7776 3.43578ZM2.40693 25.4327L8.83845 31.8642L6.79654 33.9061L0.365018 27.4746L2.40693 25.4327Z" fill="#D1B06B"/>
<path fill-rule="evenodd" clip-rule="evenodd" d="M6.04904 10.4462L4.82227 3.2959L11.9726 4.52267L16.7533 9.93555L11.7149 15.4504L6.04904 10.4462ZM14.6189 18.0153L21.7292 24.2953L20.4232 25.6014L22.4651 27.6433L23.8978 26.2106L28.346 30.1394L31.6657 26.8196L27.737 22.3714L29.1047 21.0037L27.0628 18.9618L25.8217 20.2029L19.3327 12.8559L14.6189 18.0153ZM33.2931 25.1923L26.6536 31.8319L28.6955 33.8738L35.335 27.2342L33.2931 25.1923Z" fill="#D1B06B"/>
</svg>
