<svg width="37" height="27" viewBox="0 0 37 27" fill="none" xmlns="http://www.w3.org/2000/svg">
<path d="M1.12054e-06 16C1.32922e-06 18.3869 0.790178 20.6761 2.1967 22.364C3.60322 24.0518 5.51088 25 7.5 25C9.48912 25 11.3968 24.0518 12.8033 22.364C14.2098 20.6761 15 18.3869 15 16L7.5 16L1.12054e-06 16Z" fill="#D1B06B"/>
<path d="M22 16C22 18.3869 22.7902 20.6761 24.1967 22.364C25.6032 24.0518 27.5109 25 29.5 25C31.4891 25 33.3968 24.0518 34.8033 22.364C36.2098 20.6761 37 18.3869 37 16L29.5 16L22 16Z" fill="#D1B06B"/>
<path d="M1 16L6.62071 5.62331C6.99895 4.92502 8.00105 4.92502 8.37929 5.62331L14 16" stroke="#D1B06B" stroke-width="2" stroke-linecap="round"/>
<path d="M23 16L28.6207 5.62331C28.9989 4.92502 30.0011 4.92502 30.3793 5.62331L36 16" stroke="#D1B06B" stroke-width="2" stroke-linecap="round"/>
<line x1="6.5" y1="3.5" x2="30.5" y2="3.5" stroke="#D1B06B" stroke-width="3" stroke-linecap="round"/>
<line x1="18.5" y1="25.5" x2="18.5" y2="1.5" stroke="#D1B06B" stroke-width="3" stroke-linecap="round"/>
</svg>
