<svg width="20" height="19" viewBox="0 0 20 19" fill="none" xmlns="http://www.w3.org/2000/svg">
<path d="M13.8655 1.57069C14.9461 1.5738 15.9816 1.98857 16.7458 2.72442C17.5099 3.46028 17.9407 4.45741 17.9439 5.49806V13.3519C17.9407 14.3926 17.5099 15.3897 16.7458 16.1256C15.9816 16.8614 14.9461 17.2762 13.8655 17.2793H5.70952C4.62885 17.2762 3.59336 16.8614 2.82921 16.1256C2.06506 15.3897 1.63433 14.3926 1.6311 13.3519V5.49806C1.63433 4.45741 2.06506 3.46028 2.82921 2.72442C3.59336 1.98857 4.62885 1.5738 5.70952 1.57069H13.8655ZM13.8655 0H5.70952C2.56922 0 0 2.47406 0 5.49806V13.3519C0 16.3759 2.56922 18.85 5.70952 18.85H13.8655C17.0058 18.85 19.575 16.3759 19.575 13.3519V5.49806C19.575 2.47406 17.0058 0 13.8655 0Z" fill="#1F2732"/>
<path d="M15.0887 5.49816C14.8467 5.49816 14.6102 5.42906 14.409 5.29961C14.2078 5.17015 14.051 4.98616 13.9584 4.77088C13.8658 4.55561 13.8416 4.31873 13.8888 4.09019C13.936 3.86166 14.0525 3.65174 14.2236 3.48697C14.3947 3.32221 14.6127 3.21 14.85 3.16454C15.0874 3.11909 15.3334 3.14242 15.5569 3.23159C15.7805 3.32076 15.9715 3.47176 16.106 3.6655C16.2404 3.85924 16.3122 4.08702 16.3122 4.32003C16.3125 4.47484 16.2811 4.62819 16.2197 4.77127C16.1584 4.91436 16.0683 5.04437 15.9546 5.15383C15.8409 5.2633 15.7059 5.35007 15.5573 5.40916C15.4087 5.46824 15.2495 5.49849 15.0887 5.49816ZM9.78731 6.28329C10.4326 6.28329 11.0634 6.46756 11.5999 6.81278C12.1365 7.15801 12.5547 7.64869 12.8016 8.22278C13.0485 8.79687 13.1131 9.42859 12.9873 10.038C12.8614 10.6475 12.5506 11.2073 12.0943 11.6467C11.6381 12.0861 11.0567 12.3853 10.4238 12.5065C9.79092 12.6278 9.13492 12.5655 8.53875 12.3278C7.94257 12.09 7.43302 11.6873 7.07452 11.1706C6.71601 10.6539 6.52466 10.0465 6.52466 9.4251C6.52559 8.59211 6.86962 7.7935 7.48129 7.20449C8.09295 6.61548 8.92228 6.28418 9.78731 6.28329ZM9.78731 4.7126C8.81941 4.7126 7.87326 4.98898 7.06848 5.5068C6.26371 6.02462 5.63647 6.76061 5.26607 7.6217C4.89568 8.4828 4.79876 9.43033 4.98759 10.3445C5.17642 11.2586 5.6425 12.0983 6.3269 12.7573C7.01131 13.4164 7.88329 13.8652 8.83258 14.0471C9.78188 14.2289 10.7658 14.1356 11.6601 13.7789C12.5543 13.4222 13.3186 12.8182 13.8563 12.0432C14.394 11.2683 14.6811 10.3571 14.6811 9.4251C14.6811 8.17527 14.1655 6.97663 13.2477 6.09286C12.33 5.20909 11.0852 4.7126 9.78731 4.7126Z" fill="#1F2732"/>
</svg>
