<svg width="401" height="79" viewBox="0 0 401 79" fill="none" xmlns="http://www.w3.org/2000/svg">
<path d="M58.44 23.3233C58.44 19.1881 55.009 15.8359 50.7765 15.8359H9.66352C5.43101 15.8359 2 19.1881 2 23.3233" stroke="url(#paint0_angular_2_5114)" stroke-width="3.5" stroke-miterlimit="10"/>
<path d="M4 61.1953C4 65.1965 7.25233 68.4407 11.2634 68.4407H50.2295C54.2406 68.4407 57.4929 65.1965 57.4929 61.1953" stroke="url(#paint1_angular_2_5114)" stroke-width="3.5" stroke-miterlimit="10"/>
<path d="M18.5782 26.5H15V57.2272H18.5782V26.5Z" fill="url(#paint2_angular_2_5114)"/>
<path d="M25.2315 26.5H21.6533V57.2272H25.2315V26.5Z" fill="url(#paint3_angular_2_5114)"/>
<path d="M32.0099 26.5H28.4316V57.2272H32.0099V26.5Z" fill="url(#paint4_angular_2_5114)"/>
<path d="M38.6007 26.5H35.0225V57.2272H38.6007V26.5Z" fill="url(#paint5_angular_2_5114)"/>
<path d="M45.3487 26.5H41.7705V57.2272H45.3487V26.5Z" fill="url(#paint6_angular_2_5114)"/>
<path d="M18.5782 73.0918H15V78.5H18.5782V73.0918Z" fill="url(#paint7_angular_2_5114)"/>
<path d="M25.2315 73.0918H21.6533V78.5H25.2315V73.0918Z" fill="url(#paint8_angular_2_5114)"/>
<path d="M32.0108 73.0918H28.4326V78.5H32.0108V73.0918Z" fill="url(#paint9_angular_2_5114)"/>
<path d="M38.6017 73.0918H35.0234V78.5H38.6017V73.0918Z" fill="url(#paint10_angular_2_5114)"/>
<path d="M45.3487 73.0918H41.7705V78.5H45.3487V73.0918Z" fill="url(#paint11_angular_2_5114)"/>
<path d="M25.2296 0.5H21.6514V5.90822H25.2296V0.5Z" fill="url(#paint12_angular_2_5114)"/>
<path d="M32.0099 0.5H28.4316V5.90822H32.0099V0.5Z" fill="url(#paint13_angular_2_5114)"/>
<path d="M38.5997 0.5H35.0215V5.90822H38.5997V0.5Z" fill="url(#paint14_angular_2_5114)"/>
<path d="M48.4863 24.0694V20.5L12.9999 20.5V24.0694L48.4863 24.0694Z" fill="url(#paint15_angular_2_5114)"/>
<path d="M48 63.8702V60.3008L12.5136 60.3008V63.8702L48 63.8702Z" fill="url(#paint16_angular_2_5114)"/>
<path d="M48 11.3438V7.77441L12.5136 7.77441V11.3438L48 11.3438Z" fill="url(#paint17_angular_2_5114)"/>
<path d="M116.655 59.22C116.872 59.22 116.98 59.35 116.98 59.61C116.98 59.87 116.872 60 116.655 60C115.832 60 114.51 59.9567 112.69 59.87C110.87 59.7833 109.549 59.74 108.725 59.74C107.642 59.74 106.364 59.7833 104.89 59.87C103.417 59.9567 102.269 60 101.445 60C101.272 60 101.185 59.87 101.185 59.61C101.185 59.35 101.272 59.22 101.445 59.22C102.702 59.22 103.612 59.09 104.175 58.83C104.782 58.5267 105.085 58.05 105.085 57.4C105.085 56.75 104.717 55.645 103.98 54.085L99.0404 44.075H83.3104L80.1904 51.095C79.6271 52.395 79.3454 53.565 79.3454 54.605C79.3454 56.1217 79.8871 57.27 80.9704 58.05C82.0538 58.83 83.5704 59.22 85.5204 59.22C85.7371 59.22 85.8454 59.35 85.8454 59.61C85.8454 59.87 85.7371 60 85.5204 60C84.7404 60 83.6138 59.9567 82.1404 59.87C80.4938 59.7833 79.0638 59.74 77.8504 59.74C76.6804 59.74 75.3154 59.7833 73.7554 59.87C72.3688 59.9567 71.2204 60 70.3104 60C70.0938 60 69.9854 59.87 69.9854 59.61C69.9854 59.35 70.0938 59.22 70.3104 59.22C71.5238 59.22 72.5421 58.9817 73.3654 58.505C74.1888 58.0283 74.9904 57.1833 75.7704 55.97C76.5504 54.7133 77.4821 52.8717 78.5654 50.445L92.5404 18.985C92.6271 18.855 92.8221 18.79 93.1254 18.79C93.4288 18.79 93.6021 18.855 93.6454 18.985L109.57 51.095C111.087 54.215 112.344 56.36 113.34 57.53C114.38 58.6567 115.485 59.22 116.655 59.22ZM84.0254 42.45H98.2604L90.7854 27.305L84.0254 42.45ZM137.451 55.84C137.581 55.84 137.69 55.9267 137.776 56.1C137.906 56.2733 137.906 56.4033 137.776 56.49C136.173 58.0067 134.656 59.1117 133.226 59.805C131.796 60.455 130.28 60.78 128.676 60.78C126.813 60.78 125.231 60.3467 123.931 59.48C122.675 58.57 122.046 57.075 122.046 54.995V40.305C122.046 38.875 121.808 37.9217 121.331 37.445C120.898 36.9683 120.031 36.73 118.731 36.73C118.688 36.73 118.623 36.6867 118.536 36.6C118.493 36.47 118.471 36.34 118.471 36.21C118.471 36.08 118.493 35.9717 118.536 35.885C118.623 35.755 118.688 35.69 118.731 35.69C122.805 35.5167 125.361 33.7617 126.401 30.425C126.488 30.2517 126.661 30.165 126.921 30.165C127.225 30.165 127.376 30.2517 127.376 30.425V35.56C129.413 35.5167 132.295 35.3 136.021 34.91C136.108 34.91 136.195 35.0833 136.281 35.43C136.411 35.7333 136.476 36.08 136.476 36.47C136.476 36.86 136.39 37.25 136.216 37.64C136.086 38.03 135.935 38.2033 135.761 38.16C133.335 37.5967 130.54 37.25 127.376 37.12V52.85C127.376 54.54 127.788 55.7967 128.611 56.62C129.478 57.4 130.67 57.79 132.186 57.79C134.006 57.79 135.718 57.1617 137.321 55.905L137.451 55.84ZM159.351 55.84C159.481 55.84 159.589 55.9267 159.676 56.1C159.806 56.2733 159.806 56.4033 159.676 56.49C158.072 58.0067 156.556 59.1117 155.126 59.805C153.696 60.455 152.179 60.78 150.576 60.78C148.712 60.78 147.131 60.3467 145.831 59.48C144.574 58.57 143.946 57.075 143.946 54.995V40.305C143.946 38.875 143.707 37.9217 143.231 37.445C142.797 36.9683 141.931 36.73 140.631 36.73C140.587 36.73 140.522 36.6867 140.436 36.6C140.392 36.47 140.371 36.34 140.371 36.21C140.371 36.08 140.392 35.9717 140.436 35.885C140.522 35.755 140.587 35.69 140.631 35.69C144.704 35.5167 147.261 33.7617 148.301 30.425C148.387 30.2517 148.561 30.165 148.821 30.165C149.124 30.165 149.276 30.2517 149.276 30.425V35.56C151.312 35.5167 154.194 35.3 157.921 34.91C158.007 34.91 158.094 35.0833 158.181 35.43C158.311 35.7333 158.376 36.08 158.376 36.47C158.376 36.86 158.289 37.25 158.116 37.64C157.986 38.03 157.834 38.2033 157.661 38.16C155.234 37.5967 152.439 37.25 149.276 37.12V52.85C149.276 54.54 149.687 55.7967 150.511 56.62C151.377 57.4 152.569 57.79 154.086 57.79C155.906 57.79 157.617 57.1617 159.221 55.905L159.351 55.84ZM175.725 60.845C173.125 60.845 170.829 60.2383 168.835 59.025C166.842 57.7683 165.304 56.1 164.22 54.02C163.137 51.8967 162.595 49.6 162.595 47.13C162.595 44.3133 163.289 41.93 164.675 39.98C166.105 37.9867 167.904 36.5133 170.07 35.56C172.28 34.5633 174.534 34.065 176.83 34.065C179.474 34.065 181.77 34.6933 183.72 35.95C185.714 37.2067 187.23 38.875 188.27 40.955C189.31 42.9917 189.83 45.18 189.83 47.52C189.83 50.12 189.18 52.4383 187.88 54.475C186.624 56.5117 184.912 58.0933 182.745 59.22C180.579 60.3033 178.239 60.845 175.725 60.845ZM177.675 59.545C179.582 59.545 181.034 58.7 182.03 57.01C183.07 55.32 183.59 52.85 183.59 49.6C183.59 46.6967 183.179 44.1617 182.355 41.995C181.575 39.8283 180.492 38.1817 179.105 37.055C177.762 35.9283 176.289 35.365 174.685 35.365C172.735 35.365 171.262 36.1667 170.265 37.77C169.269 39.3733 168.77 41.735 168.77 44.855C168.77 47.6717 169.139 50.2067 169.875 52.46C170.655 54.67 171.717 56.4033 173.06 57.66C174.447 58.9167 175.985 59.545 177.675 59.545ZM210.977 34.26C211.973 34.26 212.927 34.585 213.837 35.235C214.747 35.885 215.202 36.665 215.202 37.575C215.202 38.3983 214.942 39.07 214.422 39.59C213.945 40.11 213.273 40.37 212.407 40.37C211.843 40.37 211.367 40.2617 210.977 40.045C210.63 39.785 210.262 39.4383 209.872 39.005C209.482 38.615 209.135 38.3333 208.832 38.16C208.528 37.9433 208.16 37.835 207.727 37.835C207.25 37.835 206.73 38.03 206.167 38.42C205.647 38.7667 204.823 39.525 203.697 40.695V54.735C203.697 55.9483 203.87 56.88 204.217 57.53C204.563 58.1367 205.148 58.57 205.972 58.83C206.795 59.09 208.008 59.22 209.612 59.22C209.785 59.22 209.872 59.35 209.872 59.61C209.872 59.87 209.785 60 209.612 60C208.182 60 207.033 59.9783 206.167 59.935L201.032 59.87L197.262 59.935C196.655 59.9783 195.81 60 194.727 60C194.597 60 194.532 59.87 194.532 59.61C194.532 59.35 194.597 59.22 194.727 59.22C196.2 59.22 197.175 58.9167 197.652 58.31C198.128 57.7033 198.367 56.5117 198.367 54.735V42.32C198.367 40.9333 198.193 39.915 197.847 39.265C197.543 38.615 197.023 38.29 196.287 38.29C195.637 38.29 194.553 38.615 193.037 39.265H192.972C192.798 39.265 192.668 39.1567 192.582 38.94C192.495 38.7233 192.517 38.5933 192.647 38.55L201.162 34.39C201.422 34.3033 201.573 34.26 201.617 34.26C202.05 34.26 202.483 34.7367 202.917 35.69C203.35 36.6 203.61 37.8133 203.697 39.33C205.387 37.4233 206.795 36.1017 207.922 35.365C209.048 34.6283 210.067 34.26 210.977 34.26ZM249.133 59.22C249.263 59.22 249.328 59.35 249.328 59.61C249.328 59.87 249.263 60 249.133 60C248.05 60 247.205 59.9783 246.598 59.935L242.828 59.87L239.123 59.935C238.473 59.9783 237.606 60 236.523 60C236.393 60 236.328 59.87 236.328 59.61C236.328 59.35 236.393 59.22 236.523 59.22C237.996 59.22 238.971 58.9167 239.448 58.31C239.925 57.7033 240.163 56.5117 240.163 54.735V44.985C240.163 42.5583 239.708 40.7817 238.798 39.655C237.931 38.485 236.545 37.9 234.638 37.9C233.511 37.9 232.363 38.16 231.193 38.68C230.023 39.2 228.961 39.8933 228.008 40.76V54.735C228.008 56.5117 228.246 57.7033 228.723 58.31C229.2 58.9167 230.175 59.22 231.648 59.22C231.778 59.22 231.843 59.35 231.843 59.61C231.843 59.87 231.778 60 231.648 60C230.565 60 229.72 59.9783 229.113 59.935L225.343 59.87L221.573 59.935C220.966 59.9783 220.121 60 219.038 60C218.908 60 218.843 59.87 218.843 59.61C218.843 59.35 218.908 59.22 219.038 59.22C220.511 59.22 221.486 58.9167 221.963 58.31C222.44 57.7033 222.678 56.5117 222.678 54.735V42.32C222.678 40.9333 222.505 39.915 222.158 39.265C221.855 38.615 221.335 38.29 220.598 38.29C219.948 38.29 218.865 38.615 217.348 39.265H217.283C217.11 39.265 216.98 39.1567 216.893 38.94C216.806 38.7233 216.828 38.5933 216.958 38.55L225.473 34.39C225.733 34.3033 225.885 34.26 225.928 34.26C226.361 34.26 226.795 34.7583 227.228 35.755C227.705 36.7083 227.965 37.965 228.008 39.525C231.041 35.9283 234.335 34.13 237.888 34.13C240.271 34.13 242.135 34.8667 243.478 36.34C244.821 37.77 245.493 39.72 245.493 42.19V54.735C245.493 56.5117 245.731 57.7033 246.208 58.31C246.685 58.9167 247.66 59.22 249.133 59.22ZM275.031 55.905C275.118 55.905 275.205 55.9917 275.291 56.165C275.421 56.3383 275.443 56.4683 275.356 56.555C273.753 58.0283 272.15 59.1117 270.546 59.805C268.943 60.455 267.21 60.78 265.346 60.78C262.703 60.78 260.406 60.195 258.456 59.025C256.55 57.855 255.076 56.3167 254.036 54.41C253.04 52.5033 252.541 50.445 252.541 48.235C252.541 45.6783 253.17 43.3383 254.426 41.215C255.683 39.0917 257.395 37.4233 259.561 36.21C261.771 34.9533 264.22 34.325 266.906 34.325C269.506 34.325 271.521 34.9533 272.951 36.21C274.381 37.4667 275.096 39.33 275.096 41.8C275.096 43.0567 274.836 43.685 274.316 43.685L258.456 43.75C258.413 44.14 258.391 44.725 258.391 45.505C258.391 49.3183 259.258 52.3517 260.991 54.605C262.768 56.815 265.281 57.92 268.531 57.92C269.745 57.92 270.763 57.79 271.586 57.53C272.41 57.2267 273.515 56.7067 274.901 55.97L275.031 55.905ZM264.566 35.625C262.963 35.625 261.641 36.2533 260.601 37.51C259.605 38.7233 258.933 40.4133 258.586 42.58L268.986 42.385C268.9 37.8783 267.426 35.625 264.566 35.625ZM305.844 34.91C305.931 34.91 305.974 35.04 305.974 35.3C305.974 35.56 305.931 35.69 305.844 35.69C304.544 35.69 303.417 36.21 302.464 37.25C301.554 38.29 300.709 39.8717 299.929 41.995L292.454 61.82C290.894 65.98 289.399 69.2517 287.969 71.635C286.539 74.0183 285.087 75.7083 283.614 76.705C282.141 77.745 280.516 78.265 278.739 78.265C277.526 78.265 276.594 78.005 275.944 77.485C275.251 77.0083 274.904 76.2717 274.904 75.275C274.904 74.4083 275.186 73.7367 275.749 73.26C276.269 72.8267 276.919 72.61 277.699 72.61C278.219 72.61 278.652 72.675 278.999 72.805C279.389 72.9783 279.779 73.195 280.169 73.455C280.602 73.715 280.971 73.91 281.274 74.04C281.621 74.17 282.032 74.235 282.509 74.235C283.506 74.235 284.416 73.8233 285.239 73C286.106 72.22 286.994 70.8983 287.904 69.035C288.857 67.1717 289.984 64.5283 291.284 61.105L281.014 40.305C280.061 38.4417 279.302 37.2067 278.739 36.6C278.219 35.9933 277.569 35.69 276.789 35.69C276.659 35.69 276.594 35.56 276.594 35.3C276.594 35.04 276.659 34.91 276.789 34.91C277.916 34.91 278.782 34.9317 279.389 34.975L281.924 35.04L286.344 34.975C286.994 34.9317 287.882 34.91 289.009 34.91C289.139 34.91 289.204 35.04 289.204 35.3C289.204 35.56 289.139 35.69 289.009 35.69C287.839 35.69 286.972 35.7983 286.409 36.015C285.889 36.1883 285.629 36.535 285.629 37.055C285.629 37.445 285.737 37.835 285.954 38.225L293.884 54.605L298.239 41.995C298.629 40.8683 298.824 39.915 298.824 39.135C298.824 36.8383 297.372 35.69 294.469 35.69C294.382 35.69 294.339 35.56 294.339 35.3C294.339 35.04 294.382 34.91 294.469 34.91C295.639 34.91 296.527 34.9317 297.134 34.975L301.034 35.04L303.569 34.975C304.046 34.9317 304.804 34.91 305.844 34.91ZM312.584 38.29C312.584 39.6333 313.039 40.76 313.949 41.67C314.902 42.58 316.267 43.5333 318.044 44.53C319.604 45.3967 320.795 46.1117 321.619 46.675C322.485 47.2383 323.222 47.9967 323.829 48.95C324.479 49.9033 324.804 51.0517 324.804 52.395C324.804 53.8683 324.435 55.2333 323.699 56.49C322.962 57.7467 321.857 58.765 320.384 59.545C318.954 60.325 317.242 60.715 315.249 60.715C312.865 60.715 310.677 60.1083 308.684 58.895C308.424 58.635 308.294 58.375 308.294 58.115L308.164 52.135C308.164 52.005 308.272 51.94 308.489 51.94C308.749 51.8967 308.9 51.9183 308.944 52.005C309.68 54.1717 310.785 55.9483 312.259 57.335C313.775 58.7217 315.379 59.415 317.069 59.415C318.152 59.415 318.997 59.1333 319.604 58.57C320.21 58.0067 320.514 57.1617 320.514 56.035C320.514 54.3883 320.037 53.0883 319.084 52.135C318.13 51.1383 316.744 50.1633 314.924 49.21C313.45 48.43 312.302 47.78 311.479 47.26C310.655 46.6967 309.94 45.96 309.334 45.05C308.77 44.0967 308.489 42.9267 308.489 41.54C308.489 39.07 309.377 37.2283 311.154 36.015C312.974 34.8017 315.162 34.195 317.719 34.195C319.409 34.195 321.142 34.52 322.919 35.17C323.309 35.3433 323.504 35.5817 323.504 35.885C323.504 36.8817 323.482 37.6617 323.439 38.225L323.374 41.345C323.374 41.475 323.244 41.54 322.984 41.54C322.724 41.54 322.594 41.475 322.594 41.345C322.594 40.4783 322.247 39.59 321.554 38.68C320.86 37.7267 319.972 36.9467 318.889 36.34C317.805 35.7333 316.7 35.43 315.574 35.43C313.58 35.43 312.584 36.3833 312.584 38.29ZM348.003 55.84C348.133 55.84 348.241 55.9267 348.328 56.1C348.458 56.2733 348.458 56.4033 348.328 56.49C346.725 58.0067 345.208 59.1117 343.778 59.805C342.348 60.455 340.831 60.78 339.228 60.78C337.365 60.78 335.783 60.3467 334.483 59.48C333.226 58.57 332.598 57.075 332.598 54.995V40.305C332.598 38.875 332.36 37.9217 331.883 37.445C331.45 36.9683 330.583 36.73 329.283 36.73C329.24 36.73 329.175 36.6867 329.088 36.6C329.045 36.47 329.023 36.34 329.023 36.21C329.023 36.08 329.045 35.9717 329.088 35.885C329.175 35.755 329.24 35.69 329.283 35.69C333.356 35.5167 335.913 33.7617 336.953 30.425C337.04 30.2517 337.213 30.165 337.473 30.165C337.776 30.165 337.928 30.2517 337.928 30.425V35.56C339.965 35.5167 342.846 35.3 346.573 34.91C346.66 34.91 346.746 35.0833 346.833 35.43C346.963 35.7333 347.028 36.08 347.028 36.47C347.028 36.86 346.941 37.25 346.768 37.64C346.638 38.03 346.486 38.2033 346.313 38.16C343.886 37.5967 341.091 37.25 337.928 37.12V52.85C337.928 54.54 338.34 55.7967 339.163 56.62C340.03 57.4 341.221 57.79 342.738 57.79C344.558 57.79 346.27 57.1617 347.873 55.905L348.003 55.84ZM373.738 55.905C373.824 55.905 373.911 55.9917 373.998 56.165C374.128 56.3383 374.149 56.4683 374.063 56.555C372.459 58.0283 370.856 59.1117 369.253 59.805C367.649 60.455 365.916 60.78 364.053 60.78C361.409 60.78 359.113 60.195 357.163 59.025C355.256 57.855 353.783 56.3167 352.743 54.41C351.746 52.5033 351.248 50.445 351.248 48.235C351.248 45.6783 351.876 43.3383 353.133 41.215C354.389 39.0917 356.101 37.4233 358.268 36.21C360.478 34.9533 362.926 34.325 365.613 34.325C368.213 34.325 370.228 34.9533 371.658 36.21C373.088 37.4667 373.803 39.33 373.803 41.8C373.803 43.0567 373.543 43.685 373.023 43.685L357.163 43.75C357.119 44.14 357.098 44.725 357.098 45.505C357.098 49.3183 357.964 52.3517 359.698 54.605C361.474 56.815 363.988 57.92 367.238 57.92C368.451 57.92 369.469 57.79 370.293 57.53C371.116 57.2267 372.221 56.7067 373.608 55.97L373.738 55.905ZM363.273 35.625C361.669 35.625 360.348 36.2533 359.308 37.51C358.311 38.7233 357.639 40.4133 357.293 42.58L367.693 42.385C367.606 37.8783 366.133 35.625 363.273 35.625ZM394.995 34.26C395.992 34.26 396.945 34.585 397.855 35.235C398.765 35.885 399.22 36.665 399.22 37.575C399.22 38.3983 398.96 39.07 398.44 39.59C397.963 40.11 397.292 40.37 396.425 40.37C395.862 40.37 395.385 40.2617 394.995 40.045C394.648 39.785 394.28 39.4383 393.89 39.005C393.5 38.615 393.153 38.3333 392.85 38.16C392.547 37.9433 392.178 37.835 391.745 37.835C391.268 37.835 390.748 38.03 390.185 38.42C389.665 38.7667 388.842 39.525 387.715 40.695V54.735C387.715 55.9483 387.888 56.88 388.235 57.53C388.582 58.1367 389.167 58.57 389.99 58.83C390.813 59.09 392.027 59.22 393.63 59.22C393.803 59.22 393.89 59.35 393.89 59.61C393.89 59.87 393.803 60 393.63 60C392.2 60 391.052 59.9783 390.185 59.935L385.05 59.87L381.28 59.935C380.673 59.9783 379.828 60 378.745 60C378.615 60 378.55 59.87 378.55 59.61C378.55 59.35 378.615 59.22 378.745 59.22C380.218 59.22 381.193 58.9167 381.67 58.31C382.147 57.7033 382.385 56.5117 382.385 54.735V42.32C382.385 40.9333 382.212 39.915 381.865 39.265C381.562 38.615 381.042 38.29 380.305 38.29C379.655 38.29 378.572 38.615 377.055 39.265H376.99C376.817 39.265 376.687 39.1567 376.6 38.94C376.513 38.7233 376.535 38.5933 376.665 38.55L385.18 34.39C385.44 34.3033 385.592 34.26 385.635 34.26C386.068 34.26 386.502 34.7367 386.935 35.69C387.368 36.6 387.628 37.8133 387.715 39.33C389.405 37.4233 390.813 36.1017 391.94 35.365C393.067 34.6283 394.085 34.26 394.995 34.26Z" fill="white"/>
<defs>
<radialGradient id="paint0_angular_2_5114" cx="0" cy="0" r="1" gradientUnits="userSpaceOnUse" gradientTransform="translate(30.22 19.5796) rotate(90) scale(3.7437 28.22)">
<stop stop-color="#DBBC80"/>
<stop offset="1" stop-color="#AB8219"/>
</radialGradient>
<radialGradient id="paint1_angular_2_5114" cx="0" cy="0" r="1" gradientUnits="userSpaceOnUse" gradientTransform="translate(30.7464 64.818) rotate(90) scale(3.62271 26.7464)">
<stop stop-color="#DBBC80"/>
<stop offset="1" stop-color="#AB8219"/>
</radialGradient>
<radialGradient id="paint2_angular_2_5114" cx="0" cy="0" r="1" gradientUnits="userSpaceOnUse" gradientTransform="translate(16.7891 41.8636) rotate(90) scale(15.3636 1.78911)">
<stop stop-color="#DBBC80"/>
<stop offset="1" stop-color="#AB8219"/>
</radialGradient>
<radialGradient id="paint3_angular_2_5114" cx="0" cy="0" r="1" gradientUnits="userSpaceOnUse" gradientTransform="translate(23.4424 41.8636) rotate(90) scale(15.3636 1.78911)">
<stop stop-color="#DBBC80"/>
<stop offset="1" stop-color="#AB8219"/>
</radialGradient>
<radialGradient id="paint4_angular_2_5114" cx="0" cy="0" r="1" gradientUnits="userSpaceOnUse" gradientTransform="translate(30.2208 41.8636) rotate(90) scale(15.3636 1.78911)">
<stop stop-color="#DBBC80"/>
<stop offset="1" stop-color="#AB8219"/>
</radialGradient>
<radialGradient id="paint5_angular_2_5114" cx="0" cy="0" r="1" gradientUnits="userSpaceOnUse" gradientTransform="translate(36.8116 41.8636) rotate(90) scale(15.3636 1.78911)">
<stop stop-color="#DBBC80"/>
<stop offset="1" stop-color="#AB8219"/>
</radialGradient>
<radialGradient id="paint6_angular_2_5114" cx="0" cy="0" r="1" gradientUnits="userSpaceOnUse" gradientTransform="translate(43.5596 41.8636) rotate(90) scale(15.3636 1.78911)">
<stop stop-color="#DBBC80"/>
<stop offset="1" stop-color="#AB8219"/>
</radialGradient>
<radialGradient id="paint7_angular_2_5114" cx="0" cy="0" r="1" gradientUnits="userSpaceOnUse" gradientTransform="translate(16.7891 75.7959) rotate(90) scale(2.70411 1.78911)">
<stop stop-color="#DBBC80"/>
<stop offset="1" stop-color="#AB8219"/>
</radialGradient>
<radialGradient id="paint8_angular_2_5114" cx="0" cy="0" r="1" gradientUnits="userSpaceOnUse" gradientTransform="translate(23.4424 75.7959) rotate(90) scale(2.70411 1.78911)">
<stop stop-color="#DBBC80"/>
<stop offset="1" stop-color="#AB8219"/>
</radialGradient>
<radialGradient id="paint9_angular_2_5114" cx="0" cy="0" r="1" gradientUnits="userSpaceOnUse" gradientTransform="translate(30.2217 75.7959) rotate(90) scale(2.70411 1.78911)">
<stop stop-color="#DBBC80"/>
<stop offset="1" stop-color="#AB8219"/>
</radialGradient>
<radialGradient id="paint10_angular_2_5114" cx="0" cy="0" r="1" gradientUnits="userSpaceOnUse" gradientTransform="translate(36.8125 75.7959) rotate(90) scale(2.70411 1.78911)">
<stop stop-color="#DBBC80"/>
<stop offset="1" stop-color="#AB8219"/>
</radialGradient>
<radialGradient id="paint11_angular_2_5114" cx="0" cy="0" r="1" gradientUnits="userSpaceOnUse" gradientTransform="translate(43.5596 75.7959) rotate(90) scale(2.70411 1.78911)">
<stop stop-color="#DBBC80"/>
<stop offset="1" stop-color="#AB8219"/>
</radialGradient>
<radialGradient id="paint12_angular_2_5114" cx="0" cy="0" r="1" gradientUnits="userSpaceOnUse" gradientTransform="translate(23.4405 3.20411) rotate(90) scale(2.70411 1.78911)">
<stop stop-color="#DBBC80"/>
<stop offset="1" stop-color="#AB8219"/>
</radialGradient>
<radialGradient id="paint13_angular_2_5114" cx="0" cy="0" r="1" gradientUnits="userSpaceOnUse" gradientTransform="translate(30.2208 3.20411) rotate(90) scale(2.70411 1.78911)">
<stop stop-color="#DBBC80"/>
<stop offset="1" stop-color="#AB8219"/>
</radialGradient>
<radialGradient id="paint14_angular_2_5114" cx="0" cy="0" r="1" gradientUnits="userSpaceOnUse" gradientTransform="translate(36.8106 3.20411) rotate(90) scale(2.70411 1.78911)">
<stop stop-color="#DBBC80"/>
<stop offset="1" stop-color="#AB8219"/>
</radialGradient>
<radialGradient id="paint15_angular_2_5114" cx="0" cy="0" r="1" gradientUnits="userSpaceOnUse" gradientTransform="translate(30.7431 22.2847) rotate(-180) scale(17.7432 1.78468)">
<stop stop-color="#DBBC80"/>
<stop offset="1" stop-color="#AB8219"/>
</radialGradient>
<radialGradient id="paint16_angular_2_5114" cx="0" cy="0" r="1" gradientUnits="userSpaceOnUse" gradientTransform="translate(30.2568 62.0855) rotate(-180) scale(17.7432 1.78469)">
<stop stop-color="#DBBC80"/>
<stop offset="1" stop-color="#AB8219"/>
</radialGradient>
<radialGradient id="paint17_angular_2_5114" cx="0" cy="0" r="1" gradientUnits="userSpaceOnUse" gradientTransform="translate(30.2568 9.55909) rotate(-180) scale(17.7432 1.78468)">
<stop stop-color="#DBBC80"/>
<stop offset="1" stop-color="#AB8219"/>
</radialGradient>
</defs>
</svg>
