<svg width="21" height="20" viewBox="0 0 21 20" fill="none" xmlns="http://www.w3.org/2000/svg">
<path d="M10.0681 0C4.57613 0 0.123047 4.4511 0.123047 9.94064C0.123047 14.0101 2.5738 17.5071 6.07677 19.047C6.05013 18.3547 6.07233 17.5204 6.24992 16.766C6.44083 15.9583 7.52858 11.3474 7.52858 11.3474C7.52858 11.3474 7.20891 10.7128 7.20891 9.77644C7.20891 8.3031 8.06135 7.20253 9.12689 7.20253C10.0326 7.20253 10.4677 7.88151 10.4677 8.69362C10.4677 9.60337 9.88609 10.9613 9.58863 12.2217C9.34 13.2779 10.117 14.1343 11.1603 14.1343C13.0428 14.1343 14.3125 11.7158 14.3125 8.84894C14.3125 6.66999 12.843 5.04132 10.1747 5.04132C7.16008 5.04132 5.27761 7.29128 5.27761 9.80307C5.27761 10.6684 5.53512 11.2808 5.9347 11.7513C6.11673 11.9687 6.14337 12.0575 6.07677 12.306C6.02794 12.4879 5.92138 12.9273 5.87254 13.1048C5.80595 13.3577 5.60172 13.4465 5.37529 13.3533C3.98564 12.7853 3.33744 11.2675 3.33744 9.55455C3.33744 6.73212 5.72159 3.34609 10.4455 3.34609C14.2415 3.34609 16.7411 6.09308 16.7411 9.03977C16.7411 12.9406 14.57 15.8518 11.3734 15.8518C10.299 15.8518 9.29116 15.2704 8.94486 14.6136C8.94486 14.6136 8.36769 16.9035 8.24338 17.3473C8.03471 18.115 7.62181 18.8783 7.24443 19.4774C8.15986 19.7474 9.10925 19.8849 10.0637 19.8857C15.5557 19.8857 20.0088 15.4346 20.0088 9.94508C20.0088 4.45554 15.5601 0 10.0681 0Z" fill="#1F2732"/>
</svg>
