<svg width="31" height="26" viewBox="0 0 31 26" fill="none" xmlns="http://www.w3.org/2000/svg">
<path d="M13.95 3.075L8.475 13.275L5.025 14.25C5.425 13.5 5.875 12.9 6.375 12.45C6.875 11.95 7.45 11.7 8.1 11.7C9.55 11.7 10.85 12.3 12 13.5C13.2 14.65 13.8 16.15 13.8 18C13.8 19.95 13.125 21.625 11.775 23.025C10.475 24.425 8.85 25.125 6.9 25.125C5.05 25.125 3.425 24.45 2.025 23.1C0.675 21.7 0 20 0 18C0 17.2 0.15 16.275 0.45 15.225C0.8 14.175 1.425 12.8 2.325 11.1L8.325 0L13.95 3.075ZM30.825 3.075L25.35 13.275L21.975 14.25C22.325 13.5 22.75 12.9 23.25 12.45C23.8 11.95 24.375 11.7 24.975 11.7C26.425 11.7 27.75 12.3 28.95 13.5C30.15 14.65 30.75 16.15 30.75 18C30.75 19.95 30.075 21.625 28.725 23.025C27.425 24.425 25.8 25.125 23.85 25.125C22 25.125 20.375 24.45 18.975 23.1C17.625 21.7 16.95 20 16.95 18C16.95 17.2 17.1 16.275 17.4 15.225C17.7 14.175 18.3 12.8 19.2 11.1L25.275 0L30.825 3.075Z" fill="#D1B06B"/>
</svg>
