<svg width="72" height="72" viewBox="0 0 72 72" fill="none" xmlns="http://www.w3.org/2000/svg">
<circle cx="36" cy="36" r="36" fill="#661CE7"/>
<path d="M28.528 48.48C26.896 48.48 25.456 48.1333 24.208 47.44C22.96 46.736 21.984 45.76 21.28 44.512C20.5867 43.264 20.24 41.824 20.24 40.192V32.768C20.24 31.136 20.5867 29.696 21.28 28.448C21.984 27.2 22.96 26.2293 24.208 25.536C25.456 24.832 26.896 24.48 28.528 24.48C30.16 24.48 31.5947 24.832 32.832 25.536C34.08 26.2293 35.056 27.2 35.76 28.448C36.464 29.696 36.816 31.136 36.816 32.768V40.192C36.816 41.824 36.464 43.264 35.76 44.512C35.056 45.76 34.08 46.736 32.832 47.44C31.5947 48.1333 30.16 48.48 28.528 48.48ZM28.528 44.816C29.3387 44.816 30.0747 44.624 30.736 44.24C31.3973 43.8453 31.92 43.3227 32.304 42.672C32.688 42.0107 32.88 41.2747 32.88 40.464V32.48C32.88 31.6587 32.688 30.9227 32.304 30.272C31.92 29.6107 31.3973 29.088 30.736 28.704C30.0747 28.3093 29.3387 28.112 28.528 28.112C27.7173 28.112 26.9813 28.3093 26.32 28.704C25.6587 29.088 25.136 29.6107 24.752 30.272C24.368 30.9227 24.176 31.6587 24.176 32.48V40.464C24.176 41.2747 24.368 42.0107 24.752 42.672C25.136 43.3227 25.6587 43.8453 26.32 44.24C26.9813 44.624 27.7173 44.816 28.528 44.816ZM40.6625 47.968V44.608L50.5185 35.824C51.2865 35.1413 51.8198 34.496 52.1185 33.888C52.4172 33.28 52.5665 32.6933 52.5665 32.128C52.5665 31.36 52.4012 30.6773 52.0705 30.08C51.7398 29.472 51.2812 28.992 50.6945 28.64C50.1185 28.288 49.4518 28.112 48.6945 28.112C47.8945 28.112 47.1852 28.2987 46.5665 28.672C45.9585 29.0347 45.4838 29.52 45.1425 30.128C44.8012 30.736 44.6412 31.392 44.6625 32.096H40.6945C40.6945 30.56 41.0358 29.2213 41.7185 28.08C42.4118 26.9387 43.3612 26.0533 44.5665 25.424C45.7825 24.7947 47.1852 24.48 48.7745 24.48C50.2465 24.48 51.5692 24.8107 52.7425 25.472C53.9158 26.1227 54.8385 27.0293 55.5105 28.192C56.1825 29.344 56.5185 30.672 56.5185 32.176C56.5185 33.2747 56.3692 34.1973 56.0705 34.944C55.7718 35.6907 55.3238 36.3787 54.7265 37.008C54.1398 37.6373 53.4092 38.336 52.5345 39.104L45.5425 45.296L45.1905 44.336H56.5185V47.968H40.6625Z" fill="white"/>
</svg>
