<svg width="72" height="72" viewBox="0 0 72 72" fill="none" xmlns="http://www.w3.org/2000/svg">
<circle cx="36" cy="36" r="36" fill="#661CE7"/>
<path d="M28.528 48.48C26.896 48.48 25.456 48.1333 24.208 47.44C22.96 46.736 21.984 45.76 21.28 44.512C20.5867 43.264 20.24 41.824 20.24 40.192V32.768C20.24 31.136 20.5867 29.696 21.28 28.448C21.984 27.2 22.96 26.2293 24.208 25.536C25.456 24.832 26.896 24.48 28.528 24.48C30.16 24.48 31.5947 24.832 32.832 25.536C34.08 26.2293 35.056 27.2 35.76 28.448C36.464 29.696 36.816 31.136 36.816 32.768V40.192C36.816 41.824 36.464 43.264 35.76 44.512C35.056 45.76 34.08 46.736 32.832 47.44C31.5947 48.1333 30.16 48.48 28.528 48.48ZM28.528 44.816C29.3387 44.816 30.0747 44.624 30.736 44.24C31.3973 43.8453 31.92 43.3227 32.304 42.672C32.688 42.0107 32.88 41.2747 32.88 40.464V32.48C32.88 31.6587 32.688 30.9227 32.304 30.272C31.92 29.6107 31.3973 29.088 30.736 28.704C30.0747 28.3093 29.3387 28.112 28.528 28.112C27.7173 28.112 26.9813 28.3093 26.32 28.704C25.6587 29.088 25.136 29.6107 24.752 30.272C24.368 30.9227 24.176 31.6587 24.176 32.48V40.464C24.176 41.2747 24.368 42.0107 24.752 42.672C25.136 43.3227 25.6587 43.8453 26.32 44.24C26.9813 44.624 27.7173 44.816 28.528 44.816ZM47.8945 48.432C46.7425 48.432 45.6545 48.208 44.6305 47.76C43.6065 47.312 42.7158 46.6773 41.9585 45.856C41.2118 45.0347 40.6732 44.064 40.3425 42.944L44.0705 41.936C44.3372 42.8533 44.8225 43.5627 45.5265 44.064C46.2412 44.5547 47.0252 44.7947 47.8785 44.784C48.6358 44.784 49.3132 44.608 49.9105 44.256C50.5078 43.904 50.9772 43.4293 51.3185 42.832C51.6598 42.224 51.8305 41.5467 51.8305 40.8C51.8305 39.6587 51.4625 38.704 50.7265 37.936C49.9905 37.168 49.0412 36.784 47.8785 36.784C47.5265 36.784 47.1798 36.832 46.8385 36.928C46.5078 37.024 46.1878 37.1573 45.8785 37.328L44.1185 34.288L51.8625 27.664L52.1985 28.592H41.2385V24.96H55.3665V28.608L49.1425 34.592L49.1105 33.456C50.5078 33.552 51.6972 33.9413 52.6785 34.624C53.6705 35.3067 54.4278 36.1867 54.9505 37.264C55.4838 38.3413 55.7505 39.52 55.7505 40.8C55.7505 42.2507 55.3932 43.552 54.6785 44.704C53.9745 45.856 53.0252 46.768 51.8305 47.44C50.6465 48.1013 49.3345 48.432 47.8945 48.432Z" fill="white"/>
</svg>
